<svg width="125" height="27" viewBox="0 0 125 27" fill="none" xmlns="http://www.w3.org/2000/svg">
<path d="M1.31201 20.5831C0.596369 20.5831 0 19.9899 0 19.2781V3.44035C0 2.69889 0.596369 2.10571 1.31201 2.10571H5.15858C6.56005 2.10571 7.87206 2.4023 9.12443 2.93616C10.3172 3.47001 11.3906 4.24114 12.2255 5.19021C13.0605 6.13929 13.7165 7.23666 14.1041 8.48233C14.4917 9.75765 14.6408 11.0626 14.4619 12.4269C14.1936 14.6513 13.1201 16.7274 11.4205 18.24C9.7208 19.7526 7.51424 20.5831 5.21822 20.5831H1.31201ZM5.21822 17.9434C8.5877 17.9434 11.4205 15.4521 11.8081 12.1303C12.0466 10.1432 11.4801 8.30437 10.2575 6.91042C8.97534 5.51646 7.15642 4.71568 5.15858 4.71568H2.65384V17.9434H5.21822Z" fill="#E1004D"/>
<path d="M29.1624 14.0582V19.2188C29.1624 19.9899 28.5959 20.5238 27.8504 20.5238C27.3137 20.5238 26.5682 19.9603 26.5682 19.2188C25.4351 20.1679 24.1529 20.5238 22.662 20.5238C18.9347 20.5238 15.9529 17.7655 15.9529 14.0285C15.9529 10.3212 18.9347 7.35535 22.662 7.35535C26.3893 7.35535 29.1624 10.3509 29.1624 14.0582ZM26.5682 14.0582C26.5682 11.8338 24.8686 9.96531 22.662 9.96531C20.4256 9.96531 18.5471 11.8338 18.5471 14.0582C18.5471 16.2826 20.4256 17.9435 22.662 17.9435C24.8686 17.9435 26.5682 16.2529 26.5682 14.0582Z" fill="#E1004D"/>
<path d="M44.0716 13.9396V19.2485C44.0716 19.9899 43.4752 20.5534 42.7596 20.5534C42.0439 20.5534 41.4476 19.9603 41.4476 19.2485V13.9396C41.4476 11.7152 39.6585 9.93565 37.4221 9.93565C35.1857 9.93565 33.3966 11.7152 33.3966 13.9396V19.2485C33.3966 19.9899 32.8002 20.5534 32.0846 20.5534C31.3689 20.5534 30.7726 19.9603 30.7726 19.2485V13.9396C30.7726 10.2915 33.7544 7.32568 37.4221 7.32568C41.0599 7.32568 44.0716 10.2915 44.0716 13.9396Z" fill="#E1004D"/>
<path d="M58.8616 14.0582V19.2188C58.8616 19.9899 58.295 20.5238 57.5495 20.5238C57.0128 20.5238 56.2674 19.9603 56.2674 19.2188C55.1343 20.1679 53.8521 20.5238 52.3611 20.5238C48.6338 20.5238 45.652 17.7655 45.652 14.0285C45.652 10.3212 48.6338 7.35535 52.3611 7.35535C56.0884 7.38501 58.8616 10.3509 58.8616 14.0582ZM56.2674 14.0582C56.2674 11.8338 54.5677 9.96531 52.3611 9.96531C50.1248 9.96531 48.2462 11.8338 48.2462 14.0582C48.2462 16.2826 50.1248 17.9435 52.3611 17.9435C54.5677 17.9435 56.2674 16.2529 56.2674 14.0582Z" fill="#E1004D"/>
<path d="M89.1881 13.9394C89.1881 14.6512 88.5917 15.2443 87.8761 15.2443H78.7517C79.3182 16.8163 80.7793 17.9729 82.5684 17.9729C83.1648 17.9729 84.2681 17.9136 85.5503 17.1128C86.1466 16.7273 86.9815 17.0832 87.3095 17.706C87.6375 18.3585 87.2797 19.0407 86.6834 19.4559C84.9241 20.6126 83.5823 20.5829 82.5982 20.5829C78.9306 20.5829 75.9488 17.617 75.9488 13.969C75.9488 10.321 78.9306 7.35514 82.5982 7.35514C85.7292 7.32548 89.1881 9.63886 89.1881 13.9394ZM78.7219 12.6344H86.3852C85.8186 10.7955 84.119 9.93544 82.5386 9.93544C80.7495 9.93544 79.2586 11.0625 78.7219 12.6344Z" fill="#E1004D"/>
<path d="M101.473 8.63066V2.0761C101.473 1.36429 102.07 0.771118 102.785 0.771118C103.531 0.771118 104.097 1.36429 104.097 2.0761V13.8802V13.9099C104.097 17.5579 101.116 20.5238 97.448 20.5238C93.7803 20.5238 90.7985 17.5579 90.7985 13.9099C90.7985 10.2619 93.7803 7.29602 97.448 7.29602C98.9687 7.26637 100.37 7.77056 101.473 8.63066ZM101.473 13.8802C101.473 11.6558 99.6843 9.87633 97.448 9.87633C95.2116 9.87633 93.4225 11.6558 93.4225 13.8802C93.4225 16.075 95.2116 17.8842 97.448 17.8842C99.6843 17.8842 101.473 16.1046 101.473 13.8802Z" fill="#E1004D"/>
<path d="M63.608 19.0633L63.608 25.6179C63.608 26.3297 63.0116 26.9229 62.296 26.9229C61.5505 26.9229 60.984 26.3297 60.984 25.6179L60.984 13.8137L60.984 13.7841C60.984 10.1361 63.9658 7.17019 67.6335 7.17019C71.3011 7.17019 74.283 10.136 74.283 13.7841C74.283 17.4321 71.3011 20.3979 67.6335 20.3979C66.1127 20.4276 64.7113 19.9234 63.608 19.0633ZM63.608 13.8137C63.608 16.0381 65.3971 17.8176 67.6335 17.8176C69.8698 17.8176 71.6589 16.0381 71.6589 13.8137C71.6589 11.619 69.8698 9.80981 67.6335 9.80981C65.3971 9.80981 63.608 11.5893 63.608 13.8137Z" fill="#E1004D"/>
<path d="M116.472 8.66021V15.2741V15.3037C116.442 18.24 114.057 20.6126 111.105 20.6126C108.153 20.6126 105.767 18.24 105.767 15.3037V15.2741V8.66021C105.767 7.9484 106.364 7.35522 107.079 7.35522C107.825 7.35522 108.391 7.9484 108.391 8.66021V15.2444C108.391 16.757 109.614 17.973 111.135 17.973C112.685 17.973 113.878 16.7274 113.878 15.2444V8.66021C113.878 7.9484 114.474 7.35522 115.19 7.35522C115.876 7.35522 116.472 7.9484 116.472 8.66021Z" fill="#E1004D"/>
<path d="M118.112 19.2781V2.10576C118.112 1.39395 118.708 0.800781 119.424 0.800781C120.14 0.800781 120.736 1.39395 120.736 2.10576V19.2485C120.736 19.9899 120.14 20.5534 119.424 20.5534C118.708 20.5831 118.112 20.0196 118.112 19.2781Z" fill="#E1004D"/>
<path d="M122.764 4.35978C122.525 4.12251 122.376 3.7666 122.376 3.44036C122.376 3.11411 122.525 2.75821 122.764 2.52094C123.002 2.28367 123.36 2.13538 123.688 2.13538C124.046 2.13538 124.374 2.28367 124.612 2.52094C124.851 2.75821 124.97 3.11411 124.97 3.44036C124.97 3.7666 124.851 4.12251 124.612 4.35978C124.374 4.59704 124.016 4.71568 123.688 4.71568C123.36 4.71568 123.002 4.59704 122.764 4.35978ZM122.376 19.2781V8.66028C122.376 7.94847 122.972 7.3553 123.688 7.3553C124.404 7.3553 125 7.94847 125 8.66028V19.2781C125 20.0195 124.404 20.5831 123.688 20.5831C122.972 20.5831 122.376 20.0195 122.376 19.2781Z" fill="#E1004D"/>
</svg>
