<svg width="375" height="234" viewBox="0 0 375 234" fill="none" xmlns="http://www.w3.org/2000/svg">
<g clip-path="url(#clip0)">
<rect width="375" height="234" fill="#34A898"/>
<g opacity="0.15">
<mask id="path-1-inside-1" fill="white">
<path fill-rule="evenodd" clip-rule="evenodd" d="M232.484 82.0348C229.975 79.6869 227.502 77.2949 225.066 74.8594C166.978 16.8026 134.986 -60.4364 134.986 -142.551V-143.379C135.05 -169.349 149.866 -191.94 173.605 -202.36C197.44 -212.812 224.206 -208.446 243.452 -190.857C302.402 -136.985 338.079 -62.002 343.012 17.2456C352.491 4.1889 363.01 -8.1492 374.479 -19.6183L378.94 -24.0155C399.269 -43.5165 428.425 -49.5388 454.968 -39.7565C481.129 -30.0697 499.037 -6.90439 501.713 20.722C501.904 22.7932 502.032 24.8325 502.032 26.8081C502.032 60.648 488.84 92.4804 464.91 116.41C445.809 135.511 421.707 147.769 395.573 151.956C398.073 154.296 400.538 156.681 402.965 159.109C461.054 217.197 493.014 294.404 493.014 376.551V377.379C492.951 403.349 478.134 425.94 454.363 436.392C445.791 440.152 436.837 442 428.011 442C412.27 442 396.847 436.137 384.548 424.889C325.591 371.01 289.912 296.015 284.986 216.757C275.507 229.812 264.99 242.15 253.521 253.618C252.056 255.084 250.558 256.55 249.06 258.015C235.199 271.303 217.196 278.345 198.746 278.345C190.175 278.345 181.476 276.815 173.064 273.693C146.871 264.038 128.963 240.872 126.319 213.246C126.127 211.143 126 209.136 126 207.16C126 173.32 139.192 141.488 163.122 117.558C182.211 98.4683 206.329 86.2122 232.484 82.0348ZM188.327 -168.934C192.182 -170.623 196.102 -171.452 199.989 -171.452C206.808 -171.452 213.404 -168.903 218.853 -163.964C274.934 -112.694 307.085 -39.7884 307.085 36.1443C307.085 54.0201 305.365 71.7686 301.923 89.1346C283.41 77.8865 266.331 64.4716 250.909 49.0493C199.702 -2.12476 171.534 -70.1869 171.534 -142.551H153.276L171.534 -143.347C171.566 -154.787 177.843 -164.346 188.327 -168.934ZM375.275 117.048C361.574 117.048 348.254 113.989 336.114 108.126C349.497 69.9842 371.515 34.9972 400.289 6.25558L404.24 2.36813C414.532 -7.54167 428.744 -10.4732 442.286 -5.4705C455.414 -0.627136 464.018 10.4935 465.356 24.2589C465.452 25.1511 465.483 26.0114 465.483 26.8399C465.483 50.9612 456.115 73.5849 439.068 90.6323C422.02 107.68 399.365 117.048 375.275 117.048ZM320.946 197.824C320.946 179.948 322.667 162.199 326.109 144.833C344.59 156.082 361.701 169.528 377.123 184.887C428.329 236.093 456.498 304.123 456.498 376.519H474.756L456.498 377.315C456.466 388.755 450.188 398.314 439.705 402.934C429.126 407.586 417.719 405.706 409.179 397.932C353.098 346.662 320.946 273.725 320.946 197.824ZM252.725 116.984C228.635 116.984 205.98 126.352 188.932 143.4C171.885 160.447 162.517 183.071 162.517 207.192C162.517 207.991 162.576 208.819 162.637 209.677L162.644 209.773C163.982 223.506 172.586 234.627 185.714 239.47C199.256 244.473 213.468 241.542 223.792 231.632C225.13 230.357 226.405 229.114 227.711 227.808C256.517 199.003 278.503 164.016 291.886 125.906C279.746 120.011 266.426 116.984 252.725 116.984Z"/>
</mask>
<path d="M232.484 82.0348L232.957 84.9973L239.007 84.0309L234.533 79.8444L232.484 82.0348ZM225.066 74.8594L227.188 72.7381L227.187 72.7375L225.066 74.8594ZM134.986 -143.379L131.986 -143.387V-143.379H134.986ZM173.605 -202.36L172.401 -205.108L172.4 -205.107L173.605 -202.36ZM243.452 -190.857L241.428 -188.643L241.428 -188.642L243.452 -190.857ZM343.012 17.2456L340.018 17.432L340.537 25.7621L345.44 19.0081L343.012 17.2456ZM374.479 -19.6183L372.373 -21.7548L372.365 -21.7472L372.357 -21.7396L374.479 -19.6183ZM378.94 -24.0155L376.863 -26.1805L376.848 -26.1664L376.834 -26.1521L378.94 -24.0155ZM454.968 -39.7565L456.01 -42.5698L456.006 -42.5714L454.968 -39.7565ZM501.713 20.722L504.701 20.4462L504.699 20.4327L501.713 20.722ZM464.91 116.41L462.789 114.289L464.91 116.41ZM395.573 151.956L395.099 148.994L389.054 149.962L393.523 154.146L395.573 151.956ZM402.965 159.109L400.844 161.23L402.965 159.109ZM493.014 377.379L496.014 377.386V377.379H493.014ZM454.363 436.392L455.568 439.139L455.57 439.138L454.363 436.392ZM384.548 424.889L386.572 422.675L386.572 422.674L384.548 424.889ZM284.986 216.757L287.98 216.571L287.462 208.239L282.558 214.994L284.986 216.757ZM253.521 253.618L255.643 255.739L253.521 253.618ZM249.06 258.015L251.136 260.181L251.148 260.17L251.159 260.159L249.06 258.015ZM173.064 273.693L174.108 270.88L174.101 270.878L173.064 273.693ZM126.319 213.246L123.331 213.518L123.332 213.525L123.332 213.532L126.319 213.246ZM163.122 117.558L161.001 115.436L163.122 117.558ZM188.327 -168.934L189.53 -166.186L189.53 -166.186L188.327 -168.934ZM218.853 -163.964L220.877 -166.178L220.868 -166.186L218.853 -163.964ZM301.923 89.1346L300.366 91.6985L304.032 93.9262L304.866 89.7178L301.923 89.1346ZM250.909 49.0493L253.03 46.928L253.029 46.9273L250.909 49.0493ZM171.534 -142.551H174.534V-145.551H171.534V-142.551ZM153.276 -142.551L153.145 -145.548L153.276 -139.551V-142.551ZM171.534 -143.347L171.665 -140.35L174.526 -140.475L174.534 -143.339L171.534 -143.347ZM336.114 108.126L333.283 107.133L332.396 109.662L334.809 110.827L336.114 108.126ZM400.289 6.25558L398.185 4.11708L398.177 4.12505L398.169 4.13309L400.289 6.25558ZM404.24 2.36813L402.159 0.207047L402.148 0.218277L402.136 0.22963L404.24 2.36813ZM442.286 -5.4705L441.247 -2.65639L441.248 -2.65594L442.286 -5.4705ZM465.356 24.2589L462.37 24.5492L462.371 24.5639L462.373 24.5786L465.356 24.2589ZM439.068 90.6323L441.189 92.7536L439.068 90.6323ZM326.109 144.833L327.668 142.271L324 140.038L323.166 144.25L326.109 144.833ZM377.123 184.887L379.245 182.766L379.24 182.761L377.123 184.887ZM456.498 376.519H453.498V379.519H456.498V376.519ZM474.756 376.519L474.887 379.516L474.756 373.519V376.519ZM456.498 377.315L456.367 374.318L453.506 374.443L453.498 377.307L456.498 377.315ZM439.705 402.934L440.913 405.68L440.915 405.679L439.705 402.934ZM409.179 397.932L407.155 400.146L407.159 400.15L409.179 397.932ZM162.637 209.677L165.63 209.463L165.63 209.463L162.637 209.677ZM162.644 209.773L159.652 209.987L159.654 210.025L159.658 210.064L162.644 209.773ZM185.714 239.47L186.753 236.656L186.752 236.656L185.714 239.47ZM223.792 231.632L221.723 229.459L221.714 229.467L223.792 231.632ZM227.711 227.808L229.832 229.929L229.832 229.929L227.711 227.808ZM291.886 125.906L294.717 126.9L295.603 124.376L293.196 123.207L291.886 125.906ZM234.533 79.8444C232.049 77.5191 229.6 75.1502 227.188 72.7381L222.945 76.9807C225.404 79.4397 227.901 81.8547 230.434 84.2253L234.533 79.8444ZM227.187 72.7375C169.662 15.2436 137.986 -61.2321 137.986 -142.551H131.986C131.986 -59.6408 164.294 18.3617 222.946 76.9813L227.187 72.7375ZM137.986 -142.551V-143.379H131.986V-142.551H137.986ZM137.986 -143.372C138.047 -168.153 152.159 -189.671 174.811 -199.613L172.4 -205.107C147.573 -194.21 132.052 -170.544 131.986 -143.387L137.986 -143.372ZM174.81 -199.613C197.561 -209.589 223.061 -205.428 241.428 -188.643L245.476 -193.072C225.351 -211.464 197.319 -216.034 172.401 -205.108L174.81 -199.613ZM241.428 -188.642C299.802 -135.297 335.133 -61.042 340.018 17.432L346.006 17.0592C341.025 -62.9621 305.001 -138.673 245.476 -193.072L241.428 -188.642ZM345.44 19.0081C354.827 6.07799 365.243 -6.14001 376.6 -17.4969L372.357 -21.7396C360.776 -10.1584 350.156 2.29982 340.585 15.4831L345.44 19.0081ZM376.585 -17.4817L381.046 -21.879L376.834 -26.1521L372.373 -21.7548L376.585 -17.4817ZM381.016 -21.8505C400.512 -40.5514 428.457 -46.3298 453.931 -36.9416L456.006 -42.5714C428.393 -52.7478 398.027 -46.4816 376.863 -26.1805L381.016 -21.8505ZM453.926 -36.9432C479.016 -27.653 496.162 -5.46292 498.727 21.0113L504.699 20.4327C501.911 -8.34586 483.241 -32.4865 456.01 -42.5698L453.926 -36.9432ZM498.726 20.9977C498.912 23.0158 499.032 24.9565 499.032 26.8081H505.032C505.032 24.7085 504.897 22.5705 504.701 20.4462L498.726 20.9977ZM499.032 26.8081C499.032 59.8519 486.156 90.9214 462.789 114.289L467.031 118.532C491.524 94.0394 505.032 61.4441 505.032 26.8081H499.032ZM462.789 114.289C444.132 132.946 420.605 144.907 395.099 148.994L396.048 154.918C422.808 150.631 447.486 138.077 467.031 118.532L462.789 114.289ZM393.523 154.146C395.999 156.464 398.439 158.825 400.844 161.23L405.087 156.987C402.636 154.536 400.148 152.129 397.623 149.766L393.523 154.146ZM400.844 161.23C458.37 218.756 490.014 295.2 490.014 376.551H496.014C496.014 293.609 463.739 215.639 405.087 156.987L400.844 161.23ZM490.014 376.551V377.379H496.014V376.551H490.014ZM490.014 377.372C489.953 402.151 475.842 423.671 453.155 433.646L455.57 439.138C480.426 428.21 495.948 404.546 496.014 377.386L490.014 377.372ZM453.158 433.645C444.961 437.24 436.417 439 428.011 439V445C437.258 445 446.622 443.063 455.568 439.139L453.158 433.645ZM428.011 439C413.026 439 398.324 433.422 386.572 422.675L382.523 427.103C395.371 438.852 411.514 445 428.011 445V439ZM386.572 422.674C328.191 369.322 292.858 295.055 287.98 216.571L281.992 216.943C286.966 296.975 322.991 372.698 382.524 427.103L386.572 422.674ZM282.558 214.994C273.172 227.923 262.756 240.141 251.4 251.497L255.643 255.739C267.223 244.159 277.843 231.702 287.414 218.519L282.558 214.994ZM251.4 251.497C249.948 252.949 248.462 254.404 246.962 255.871L251.159 260.159C252.654 258.696 254.164 257.219 255.643 255.739L251.4 251.497ZM246.984 255.85C233.685 268.599 216.427 275.345 198.746 275.345V281.345C217.965 281.345 236.714 274.007 251.136 260.181L246.984 255.85ZM198.746 275.345C190.532 275.345 182.187 273.879 174.108 270.88L172.02 276.505C180.765 279.752 189.818 281.345 198.746 281.345V275.345ZM174.101 270.878C148.983 261.619 131.839 239.431 129.305 212.96L123.332 213.532C126.088 242.313 144.76 266.457 172.026 276.507L174.101 270.878ZM129.306 212.974C129.119 210.919 129 209.01 129 207.16H123C123 209.261 123.135 211.367 123.331 213.518L129.306 212.974ZM129 207.16C129 174.116 141.875 143.047 165.243 119.679L161.001 115.436C136.508 139.929 123 172.524 123 207.16H129ZM165.243 119.679C183.887 101.035 207.429 89.0746 232.957 84.9973L232.01 79.0724C205.229 83.3499 180.535 95.9018 161.001 115.436L165.243 119.679ZM199.989 -174.452C195.667 -174.452 191.339 -173.529 187.123 -171.682L189.53 -166.186C193.026 -167.717 196.537 -168.452 199.989 -168.452V-174.452ZM220.868 -166.186C214.891 -171.604 207.584 -174.452 199.989 -174.452V-168.452C206.032 -168.452 211.918 -166.201 216.838 -161.741L220.868 -166.186ZM310.085 36.1443C310.085 -40.6316 277.579 -114.34 220.877 -166.178L216.829 -161.749C272.289 -111.047 304.085 -38.9452 304.085 36.1443H310.085ZM304.866 89.7178C308.346 72.1564 310.085 54.2126 310.085 36.1443H304.085C304.085 53.8277 302.383 71.3807 298.981 88.5515L304.866 89.7178ZM248.787 51.1706C264.378 66.7617 281.647 80.3253 300.366 91.6985L303.481 86.5707C285.174 75.4477 268.283 62.1816 253.03 46.928L248.787 51.1706ZM168.534 -142.551C168.534 -69.3918 197.018 -0.566055 248.788 51.1713L253.029 46.9273C202.387 -3.68347 174.534 -70.982 174.534 -142.551H168.534ZM153.276 -139.551H171.534V-145.551H153.276V-139.551ZM171.404 -146.345L153.145 -145.548L153.407 -139.554L171.665 -140.35L171.404 -146.345ZM187.124 -171.683C175.553 -166.618 168.569 -155.985 168.534 -143.356L174.534 -143.339C174.563 -153.588 180.134 -162.074 189.53 -166.186L187.124 -171.683ZM334.809 110.827C347.358 116.888 361.124 120.048 375.275 120.048V114.048C362.023 114.048 349.15 111.09 337.419 105.424L334.809 110.827ZM398.169 4.13309C369.077 33.192 346.816 68.5646 333.283 107.133L338.945 109.119C352.178 71.4037 373.953 36.8024 402.409 8.37808L398.169 4.13309ZM402.136 0.22963L398.185 4.11708L402.393 8.39409L406.344 4.50664L402.136 0.22963ZM443.326 -8.28464C428.718 -13.681 413.291 -10.5108 402.159 0.207047L406.321 4.52922C415.774 -4.57257 428.77 -7.2654 441.247 -2.65639L443.326 -8.28464ZM468.342 23.9686C466.891 9.04671 457.522 -3.04733 443.324 -8.28506L441.248 -2.65594C453.307 1.79306 461.144 11.9404 462.37 24.5492L468.342 23.9686ZM468.483 26.8399C468.483 25.935 468.449 24.9641 468.339 23.9393L462.373 24.5786C462.454 25.3382 462.483 26.0878 462.483 26.8399H468.483ZM441.189 92.7536C458.8 75.1432 468.483 51.7564 468.483 26.8399H462.483C462.483 50.166 453.431 72.0265 436.947 88.511L441.189 92.7536ZM375.275 120.048C400.159 120.048 423.578 110.364 441.189 92.7536L436.947 88.511C420.462 104.995 398.57 114.048 375.275 114.048V120.048ZM323.166 144.25C319.686 161.812 317.946 179.755 317.946 197.824H323.946C323.946 180.14 325.649 162.587 329.051 145.417L323.166 144.25ZM379.24 182.761C363.652 167.237 346.354 153.643 327.668 142.271L324.549 147.396C342.825 158.52 359.75 171.819 375.006 187.013L379.24 182.761ZM459.498 376.519C459.498 303.328 431.014 234.534 379.245 182.766L375.002 187.008C425.645 237.651 453.498 304.919 453.498 376.519H459.498ZM474.756 373.519H456.498V379.519H474.756V373.519ZM456.628 380.312L474.887 379.516L474.625 373.522L456.367 374.318L456.628 380.312ZM440.915 405.679C452.478 400.583 459.462 389.955 459.498 377.324L453.498 377.307C453.469 387.555 447.899 396.045 438.495 400.189L440.915 405.679ZM407.159 400.15C416.574 408.721 429.246 410.811 440.913 405.68L438.497 400.188C429.006 404.362 418.863 402.692 411.199 395.713L407.159 400.15ZM317.946 197.824C317.946 274.568 350.452 348.308 407.155 400.146L411.203 395.717C355.743 345.016 323.946 272.882 323.946 197.824H317.946ZM191.054 145.521C207.538 129.037 229.43 119.984 252.725 119.984V113.984C227.841 113.984 204.422 123.667 186.811 141.278L191.054 145.521ZM165.517 207.192C165.517 183.866 174.569 162.005 191.054 145.521L186.811 141.278C169.2 158.889 159.517 182.275 159.517 207.192H165.517ZM165.63 209.463C165.567 208.583 165.517 207.864 165.517 207.192H159.517C159.517 208.117 159.585 209.055 159.645 209.891L165.63 209.463ZM165.636 209.559L165.63 209.463L159.645 209.891L159.652 209.987L165.636 209.559ZM186.752 236.656C174.692 232.206 166.855 222.058 165.63 209.482L159.658 210.064C161.109 224.955 170.48 237.048 184.676 242.285L186.752 236.656ZM221.714 229.467C212.227 238.574 199.229 241.265 186.753 236.656L184.674 242.284C199.284 247.681 214.708 244.509 225.869 233.796L221.714 229.467ZM225.59 225.687C224.301 226.975 223.044 228.201 221.723 229.459L225.861 233.804C227.216 232.513 228.508 231.254 229.832 229.929L225.59 225.687ZM289.056 124.912C275.822 162.597 254.078 197.199 225.59 225.687L229.832 229.929C258.955 200.807 281.184 165.435 294.717 126.9L289.056 124.912ZM252.725 119.984C265.981 119.984 278.852 122.912 290.576 128.605L293.196 123.207C280.64 117.11 266.872 113.984 252.725 113.984V119.984Z" fill="white" mask="url(#path-1-inside-1)"/>
</g>
</g>
<defs>
<clipPath id="clip0">
<rect width="375" height="234" fill="white"/>
</clipPath>
</defs>
</svg>
